<?xml version="1.0" encoding="UTF-8"?>
<svg width="40px" height="40px" version="1.1" viewBox="0 0 700 700" xmlns="http://www.w3.org/2000/svg" xmlns:xlink="http://www.w3.org/1999/xlink">
 <g>
  <path d="m533.12 376.88-11.762-18.48v-107.52c0.054687-33.422-9.6016-66.137-27.793-94.172-18.195-28.039-44.141-50.184-74.688-63.746 0-24.609-13.129-47.348-34.438-59.652-21.312-12.305-47.57-12.305-68.883 0-21.309 12.305-34.438 35.043-34.438 59.652-30.547 13.562-56.492 35.707-74.688 63.746-18.191 28.035-27.848 60.75-27.793 94.172v107.52l-11.762 18.48c-5.5234 8.4219-8.6523 18.188-9.0469 28.25s1.957 20.043 6.8086 28.871c4.8789 8.7969 12.02 16.137 20.684 21.254 8.6641 5.1211 18.535 7.8359 28.598 7.8672h50.398c4.4375 27.352 21.664 50.941 46.371 63.488 24.703 12.551 53.914 12.551 78.617 0 24.707-12.547 41.934-36.137 46.371-63.488h50.398c10.062-0.03125 19.934-2.7461 28.598-7.8672 8.6641-5.1172 15.805-12.457 20.684-21.254 4.8516-8.8281 7.2031-18.809 6.8086-28.871s-3.5234-19.828-9.0469-28.25zm-183.12-308.56c8.1875 0.0625 15.781 4.2812 20.16 11.199-6.6758-0.92969-13.422-1.3047-20.16-1.1211-6.7383-0.18359-13.484 0.19141-20.16 1.1211 4.3789-6.918 11.973-11.137 20.16-11.199zm0 54.879c33.715 0.14844 65.988 13.684 89.723 37.629s36.984 56.336 36.836 90.051v89.043h-253.12v-89.043c-0.14844-33.715 13.102-66.105 36.836-90.051s56.008-37.48 89.723-37.629zm0 368.48c-8.7812-0.007813-17.34-2.7656-24.473-7.8867-7.1289-5.125-12.477-12.355-15.289-20.672h79.523c-2.8125 8.3164-8.1602 15.547-15.289 20.672-7.1328 5.1211-15.691 7.8789-24.473 7.8867zm146.16-78.961c-2.1523 3.5-5.9727 5.6211-10.082 5.6016h-272.16c-4.1094 0.019532-7.9297-2.1016-10.082-5.6016-1.832-3.5625-1.6172-7.8359 0.55859-11.199l10.641-16.801h269.92l10.641 16.801c2.1758 3.3633 2.3906 7.6367 0.55859 11.199z" fill="#FFFFFF"/>
  <use x="70" y="644" xlink:href="#u"/>
  <use x="90.550781" y="644" xlink:href="#d"/>
  <use x="104.359375" y="644" xlink:href="#a"/>
  <use x="123.347656" y="644" xlink:href="#e"/>
  <use x="142.242188" y="644" xlink:href="#c"/>
  <use x="155.628906" y="644" xlink:href="#a"/>
  <use x="174.617188" y="644" xlink:href="#j"/>
  <use x="204.410156" y="644" xlink:href="#i"/>
  <use x="224.453125" y="644" xlink:href="#h"/>
  <use x="252.453125" y="644" xlink:href="#g"/>
  <use x="272.617188" y="644" xlink:href="#b"/>
  <use x="291.851562" y="644" xlink:href="#t"/>
  <use x="311.898438" y="644" xlink:href="#f"/>
  <use x="331.828125" y="644" xlink:href="#s"/>
  <use x="341.429688" y="644" xlink:href="#e"/>
  <use x="70" y="672" xlink:href="#r"/>
  <use x="82.183594" y="672" xlink:href="#d"/>
  <use x="95.992188" y="672" xlink:href="#b"/>
  <use x="115.226562" y="672" xlink:href="#q"/>
  <use x="154.152344" y="672" xlink:href="#c"/>
  <use x="167.535156" y="672" xlink:href="#f"/>
  <use x="187.46875" y="672" xlink:href="#a"/>
  <use x="216.207031" y="672" xlink:href="#p"/>
  <use x="239.640625" y="672" xlink:href="#b"/>
  <use x="258.878906" y="672" xlink:href="#o"/>
  <use x="278.8125" y="672" xlink:href="#n"/>
  <use x="308.492188" y="672" xlink:href="#m"/>
  <use x="329.015625" y="672" xlink:href="#d"/>
  <use x="342.820312" y="672" xlink:href="#b"/>
  <use x="362.058594" y="672" xlink:href="#l"/>
  <use x="371.65625" y="672" xlink:href="#a"/>
  <use x="390.648438" y="672" xlink:href="#k"/>
  <use x="407.242188" y="672" xlink:href="#c"/>
 </g>
</svg>
