<?xml version="1.0" encoding="UTF-8"?>
<svg width="40px" height="40px" version="1.1" viewBox="0 0 700 700" xmlns="http://www.w3.org/2000/svg" fill="#FFFFFF">
 <path d="m527.98 37.273h-355.77c-24.676 0-44.625 19.949-44.625 44.625v396.2c0 18.375 11.023 34.648 28.176 41.477 5.4258 2.1016 11.023 3.1484 16.449 3.1484 12.074 0 23.801-4.8984 32.375-14.176l145.25-155.23 145.25 155.23c12.602 13.477 31.852 17.852 49 11.023 17.148-6.8242 28.176-23.102 28.176-41.477l-0.003906-396.2c0.17578-24.672-19.773-44.625-44.273-44.625zm9.4492 440.83c0 5.9492-4.1992 8.2266-6.125 8.9258-1.75 0.69922-6.4766 1.9258-10.5-2.4492l-158.02-168.88c-6.6484-7-18.898-7-25.551 0l-158.03 169.05c-4.0234 4.375-8.75 3.1484-10.5 2.4492s-6.125-2.9766-6.125-8.9258v-396.38c0-5.25 4.375-9.625 9.625-9.625h355.95c5.25 0 9.625 4.375 9.625 9.625l-0.003906 396.2z"/>
</svg>
