<?xml version="1.0" encoding="UTF-8"?>
<svg width="700pt" height="700pt" version="1.1" viewBox="0 0 700 700" xmlns="http://www.w3.org/2000/svg">
 <path d="m455 70c-40.602 0-79.566 18.898-105 48.766-25.434-29.867-64.398-48.766-105-48.766-71.867 0-128.33 56.465-128.33 128.33 0 88.199 79.332 160.07 199.5 269.27l33.832 30.57 33.832-30.801c120.17-108.97 199.5-180.83 199.5-269.04 0-71.867-56.465-128.33-128.33-128.33zm-102.67 362.83-2.332 2.332-2.332-2.332c-111.07-100.57-184.34-167.07-184.34-234.5 0-46.664 35-81.664 81.668-81.664 35.934 0 70.934 23.102 83.301 55.066h43.633c12.133-31.969 47.133-55.066 83.066-55.066 46.668 0 81.668 35 81.668 81.668 0 67.434-73.266 133.93-184.33 234.5z"/>
</svg>
