<svg fill="#FFFFFF" xmlns="http://www.w3.org/2000/svg"  viewBox="0 0 64 64" width="40px" height="40px"><path d="M32,10c13.785,0,25,8.951,25,19.954S45.785,49.907,32,49.907c-0.646,0-1.311-0.022-1.983-0.065	c-7.369,5.504-13.411,6.251-13.672,6.281c-0.076,0.009-0.152,0.013-0.228,0.013c-0.7,0-1.356-0.368-1.72-0.979	c-0.402-0.678-0.369-1.528,0.084-2.172c0.023-0.033,1.966-2.8,4.003-6.234C11.346,43.104,7,36.827,7,29.954	C7,18.951,18.215,10,32,10z M32,45.907c11.579,0,21-7.157,21-15.954S43.579,14,32,14s-21,7.157-21,15.954	c0,5.86,4.242,11.243,11.071,14.046c0.529,0.217,0.939,0.65,1.128,1.19c0.189,0.54,0.138,1.135-0.142,1.634	c-0.749,1.343-1.521,2.635-2.236,3.787c2.061-0.888,4.615-2.27,7.363-4.401c0.398-0.31,0.9-0.458,1.4-0.412	C30.409,45.871,31.222,45.907,32,45.907z"/></svg>