<?xml version="1.0" encoding="UTF-8"?>
<svg width="40px" height="40px" version="1.1" viewBox="0 0 700 700" xmlns="http://www.w3.org/2000/svg" xmlns:xlink="http://www.w3.org/1999/xlink" fill="#FFFFFF">

 <g>
  <path d="m589.46 280c0 6.4961-0.22266 13.105-0.78516 19.602-0.22266 3.3594-0.55859 6.7188-1.0078 9.9688-0.11328 1.1211-0.55859 4.5938-0.22266 1.6797-0.22266 1.793-0.55859 3.5859-0.78516 5.2656-2.0156 12.656-5.0391 25.199-9.0703 37.52-1.9023 5.9375-4.1445 11.762-6.3828 17.473-0.67188 1.793 0.11328-0.33594 0.22266-0.55859-0.33594 0.67188-0.55859 1.3438-0.89453 2.0156-0.55859 1.3438-1.2305 2.6875-1.793 4.0312-1.3438 2.9102-2.6875 5.8242-4.1445 8.625-5.6016 11.199-12.098 21.953-19.375 32.145-1.6797 2.3516-3.4727 4.7031-5.2656 7.0547-1.1211 1.5664 0.22266-0.33594 0.33594-0.44922-0.44922 0.55859-0.89453 1.1211-1.3438 1.6797-1.1211 1.3438-2.1289 2.6875-3.2461 4.0312-4.0312 4.9297-8.2891 9.6328-12.656 14.223-4.2578 4.3672-8.625 8.625-13.215 12.656-2.1289 1.9023-4.3672 3.9219-6.6094 5.7109-1.1211 0.89453-2.2383 1.9023-3.3594 2.8008-0.55859 0.44922-1.1211 0.89453-1.6797 1.3438-3.5859 2.9102 1.457-1.1211-0.67188 0.55859-9.7422 7.3906-20.047 14.113-30.801 20.047-5.6016 3.1367-11.312 6.0469-17.137 8.625-1.3438 0.67188-2.6875 1.2305-4.0312 1.793-0.67187 0.33594-1.3438 0.55859-2.0156 0.89453 0.22266-0.11328 2.3516-1.0078 0.55859-0.22266-3.0234 1.2305-6.0469 2.3516-9.0703 3.4727-11.984 4.3672-24.414 7.8398-36.961 10.414-3.0234 0.55859-6.0469 1.1211-8.9609 1.6797-1.5664 0.22266-3.0234 0.44922-4.5938 0.67188-2.0156 0.33594 0.33594 0 0.67188-0.11328-1.0078 0.11328-2.0156 0.22266-3.0234 0.33594-6.7188 0.78516-13.441 1.2305-20.16 1.5664-12.992 0.44922-26.098 0-38.977-1.5664-1.1211-0.11328-4.5938-0.55859-1.6797-0.22266-1.793-0.22266-3.5859-0.55859-5.2656-0.78516-3.2461-0.55859-6.4961-1.1211-9.7422-1.793-6.1602-1.2305-12.32-2.6875-18.367-4.4805-6.0469-1.6797-11.984-3.5859-17.809-5.7109-3.0234-1.1211-6.0469-2.3516-9.0703-3.4727-1.793-0.67187 0.33594 0.11328 0.55859 0.22266-0.67187-0.33594-1.3438-0.55859-2.0156-0.89453-1.5664-0.67188-3.1367-1.457-4.7031-2.1289-11.426-5.2656-22.398-11.312-32.816-18.258-5.1523-3.3594-10.078-6.9453-15.008-10.641 2.2383 1.6797-0.44922-0.33594-1.2305-1.0078-1.1211-0.89453-2.2383-1.793-3.3594-2.8008-2.4648-2.0156-4.8164-4.1445-7.168-6.2734-9.2969-8.2891-17.922-17.246-25.871-26.879-0.89453-1.1211-1.9023-2.2383-2.8008-3.3594-0.67188-0.78516-2.6875-3.4727-1.0078-1.2305-2.1289-2.6875-4.1445-5.4883-6.0469-8.2891-3.4727-5.0391-6.832-10.191-9.9688-15.457s-6.1602-10.641-8.9609-16.129c-1.3438-2.6875-2.5742-5.2656-3.9219-7.9531-0.67188-1.5664-1.457-3.1367-2.1289-4.7031-0.33594-0.67187-0.55859-1.3438-0.89453-2.0156 0.67188 1.5664 0.55859 1.2305 0-0.11328-4.5938-11.648-8.5117-23.52-11.426-35.617-1.5664-6.3828-2.8008-12.879-3.9219-19.375-0.22266-1.5664-0.44922-3.0234-0.67187-4.5938 0.44922 2.9102-0.11328-0.55859-0.22266-1.6797-0.33594-3.3594-0.67188-6.7188-1.0078-9.9688-1.0078-13.328-1.0078-26.656 0.11328-39.871 0.22266-3.1367 0.55859-6.1602 0.89453-9.2969 0.11328-1.1211 0.55859-4.5938 0.22266-1.6797 0.22266-1.793 0.55859-3.5859 0.78516-5.2656 1.0078-6.4961 2.3516-12.992 3.9219-19.375 3.0234-12.207 6.9453-23.969 11.535-35.617 0.67188-1.793-0.11328 0.33594-0.22266 0.55859 0.33594-0.89453 0.78516-1.793 1.2305-2.6875 0.55859-1.3438 1.2305-2.6875 1.793-4.0312 1.3438-2.9102 2.8008-5.8242 4.2578-8.625 2.8008-5.4883 5.8242-10.863 8.9609-16.129 3.2461-5.4883 6.832-10.754 10.527-16.016 1.6797-2.3516 3.4727-4.7031 5.2656-7.0547-1.6797 2.2383 0.33594-0.44922 1.0078-1.2305 1.1211-1.3438 2.1289-2.6875 3.2461-3.9219 7.9531-9.5195 16.688-18.48 25.984-26.77 2.2383-1.9023 4.3672-3.8086 6.6094-5.7109 1.1211-0.89453 2.2383-1.9023 3.3594-2.8008 0.55859-0.44922 1.1211-0.89453 1.6797-1.3438 2.0156-1.5664-2.0156 1.457 0.11328-0.11328 4.9297-3.6953 9.8555-7.2812 15.008-10.527 10.527-6.832 21.504-12.879 32.93-18.145 1.3438-0.67188 2.6875-1.2305 4.0312-1.793 0.67188-0.33594 1.3438-0.55859 2.0156-0.89453-0.22266 0.11328-2.3516 1.0078-0.55859 0.22266 3.2461-1.3438 6.4961-2.5742 9.7422-3.6953 5.8242-2.1289 11.871-4.0312 17.809-5.7109 6.0469-1.6797 12.207-3.1367 18.367-4.3672 3.2461-0.67188 6.4961-1.2305 9.7422-1.793 1.5664-0.22266 3.0234-0.44922 4.5938-0.67188-3.1367 0.44922 1.3438-0.11328 2.3516-0.22266 12.992-1.457 25.984-1.9023 39.09-1.457 6.7188 0.22266 13.441 0.78516 20.16 1.5664 0.78516 0.11328 1.5664 0.22266 2.2383 0.33594-0.22266 0-2.6875-0.33594-0.67188-0.11328 1.5664 0.22266 3.0234 0.44922 4.5938 0.67187 3.2461 0.55859 6.4961 1.1211 9.7422 1.793 12.543 2.5742 24.863 6.0469 36.961 10.527 2.8008 1.0078 5.6016 2.1289 8.2891 3.2461 1.793 0.67188-0.33594-0.11328-0.55859-0.22266 0.67188 0.33594 1.3438 0.55859 2.0156 0.89453 1.5664 0.67188 3.1367 1.457 4.7031 2.1289 5.8242 2.6875 11.535 5.6016 17.137 8.7344 10.754 5.9375 20.945 12.656 30.688 20.16-2.5742-2.0156 1.1211 0.89453 1.793 1.457 1.1211 0.89453 2.2383 1.9023 3.3594 2.8008 2.4648 2.0156 4.8164 4.1445 7.168 6.2734 4.4805 4.0312 8.9609 8.2891 13.105 12.77 4.3672 4.5938 8.625 9.2969 12.656 14.223 0.89453 1.1211 1.9023 2.2383 2.8008 3.3594 0.44922 0.55859 0.89453 1.1211 1.3438 1.6797-0.11328-0.22266-1.5664-2.0156-0.33594-0.44922 1.9023 2.5742 3.8086 5.0391 5.6016 7.7266 7.168 10.191 13.664 21.055 19.266 32.258 1.3438 2.6875 2.5742 5.2656 3.8086 8.0625 0.67188 1.3438 1.2305 2.6875 1.793 4.0312 0.33594 0.67187 0.55859 1.3438 0.89453 2.0156-0.67188-1.5664-0.55859-1.2305 0 0.11328 2.3516 6.0469 4.5938 12.098 6.6094 18.258 3.8086 11.984 6.7188 24.305 8.7344 36.848 0.22266 1.5664 0.44922 3.0234 0.67188 4.5938-0.44922-2.9102 0.11328 0.55859 0.22266 1.6797 0.33594 3.3594 0.67188 6.7188 1.0078 9.9688 0.4375 6.1758 0.66016 12.785 0.77344 19.281 0 8.7344 7.7266 17.246 16.801 16.801 9.0703-0.44922 16.801-7.3906 16.801-16.801-0.22266-55.215-17.023-110.32-49.168-155.46-32.258-45.246-77.055-79.633-129.14-98.895-52.641-19.375-111.78-21.281-165.76-6.0469-52.191 14.781-99.902 45.695-134.4 87.582-35.727 43.457-57.23 96.32-61.711 152.43-4.3711 55.438 9.1797 112.22 37.965 159.82 27.887 46.145 69.887 84.223 119.17 106.4 52.414 23.633 110.66 30.352 167.11 19.039 53.312-10.641 103.27-38.527 140.89-77.84 37.52-39.312 63.391-90.047 71.566-143.81 2.2383-14.336 3.4727-28.672 3.5859-43.23 0-8.7344-7.7266-17.246-16.801-16.801-9.2969 0.33594-16.91 7.3945-16.91 16.801z"/>
  <path d="m393.9 280c0 22.887-18.551 41.441-41.438 41.441-22.887 0-41.441-18.555-41.441-41.441s18.555-41.441 41.441-41.441c22.887 0 41.438 18.555 41.438 41.441"/>
  <path d="m382.7 280c-0.22266 12.32-7.5039 23.633-19.152 28.113-12.098 4.7031-26.098 1.1211-34.383-8.9609-17.586-21.055 1.6797-54.098 28.672-49.055 14.449 2.9102 24.641 15.344 24.863 29.902 0.22266 14.449 22.625 14.449 22.398 0-0.44922-22.176-14-41.777-34.832-49.504-20.16-7.5039-44.129-1.0078-57.793 15.566-14.113 17.023-16.574 41.777-5.0391 60.93 11.535 19.152 33.938 28.672 55.777 24.527 24.527-4.7031 41.551-27.105 42-51.52 0.22656-14.449-22.176-14.449-22.512 0z"/>
  <path d="m252.56 280c0 22.887-18.551 41.441-41.438 41.441-22.887 0-41.441-18.555-41.441-41.441s18.555-41.441 41.441-41.441c22.887 0 41.438 18.555 41.438 41.441"/>
  <path d="m241.36 280c-0.22266 12.32-7.5039 23.633-19.152 28.113-12.098 4.7031-26.098 1.1211-34.383-8.9609-17.586-21.055 1.6797-54.098 28.672-49.055 14.449 2.9102 24.527 15.344 24.863 29.902 0.22266 14.449 22.625 14.449 22.398 0-0.44922-22.176-14-41.777-34.832-49.504-20.16-7.5039-44.129-1.0078-57.793 15.566-14.113 17.023-16.574 41.777-5.0391 60.93 11.535 19.152 33.938 28.672 55.777 24.527 24.527-4.7031 41.551-27.105 42-51.52 0.11328-14.449-22.285-14.449-22.512 0z"/>
  <path d="m535.36 280c0 22.887-18.551 41.441-41.438 41.441s-41.441-18.555-41.441-41.441 18.555-41.441 41.441-41.441 41.438 18.555 41.438 41.441"/>
  <path d="m524.05 280c-0.22266 12.32-7.5039 23.633-19.152 28.113-12.098 4.7031-26.098 1.1211-34.383-8.9609-17.586-21.055 1.6797-54.098 28.672-49.055 14.559 2.9102 24.641 15.344 24.863 29.902 0.22266 14.449 22.625 14.449 22.398 0-0.44922-22.176-14-41.777-34.832-49.504-20.16-7.5039-44.129-1.0078-57.793 15.566-14.113 17.023-16.574 41.777-5.0391 60.93 11.535 19.152 33.938 28.672 55.777 24.527 24.527-4.7031 41.551-27.105 42-51.52 0.22656-14.449-22.176-14.449-22.512 0z"/>
  <use x="70" y="576.800781" xlink:href="#u"/>
  <use x="74.109375" y="576.800781" xlink:href="#d"/>
  <use x="76.871094" y="576.800781" xlink:href="#a"/>
  <use x="80.667969" y="576.800781" xlink:href="#c"/>
  <use x="84.449219" y="576.800781" xlink:href="#b"/>
  <use x="87.125" y="576.800781" xlink:href="#a"/>
  <use x="90.921875" y="576.800781" xlink:href="#j"/>
  <use x="96.882812" y="576.800781" xlink:href="#i"/>
  <use x="100.890625" y="576.800781" xlink:href="#g"/>
  <use x="106.488281" y="576.800781" xlink:href="#f"/>
  <use x="111.175781" y="576.800781" xlink:href="#a"/>
  <use x="114.976562" y="576.800781" xlink:href="#h"/>
  <use x="118.960938" y="576.800781" xlink:href="#c"/>
  <use x="124.691406" y="576.800781" xlink:href="#t"/>
  <use x="128.511719" y="576.800781" xlink:href="#g"/>
  <use x="132.160156" y="576.800781" xlink:href="#c"/>
  <use x="135.9375" y="576.800781" xlink:href="#s"/>
  <use x="139.949219" y="576.800781" xlink:href="#r"/>
  <use x="70" y="582.398437" xlink:href="#q"/>
  <use x="72.4375" y="582.398437" xlink:href="#d"/>
  <use x="75.199219" y="582.398437" xlink:href="#e"/>
  <use x="79.046875" y="582.398437" xlink:href="#p"/>
  <use x="86.828125" y="582.398437" xlink:href="#b"/>
  <use x="89.507812" y="582.398437" xlink:href="#h"/>
  <use x="93.492188" y="582.398437" xlink:href="#a"/>
  <use x="99.242188" y="582.398437" xlink:href="#f"/>
  <use x="103.929688" y="582.398437" xlink:href="#e"/>
  <use x="107.773438" y="582.398437" xlink:href="#o"/>
  <use x="111.761719" y="582.398437" xlink:href="#n"/>
  <use x="117.699219" y="582.398437" xlink:href="#m"/>
  <use x="121.800781" y="582.398437" xlink:href="#d"/>
  <use x="124.5625" y="582.398437" xlink:href="#e"/>
  <use x="128.410156" y="582.398437" xlink:href="#l"/>
  <use x="130.332031" y="582.398437" xlink:href="#a"/>
  <use x="134.128906" y="582.398437" xlink:href="#k"/>
  <use x="137.449219" y="582.398437" xlink:href="#b"/>
 </g>
</svg>
