<?xml version="1.0" encoding="UTF-8"?>
<svg width="52px" height="52px" version="1.1" viewBox="0 0 700 700" xmlns="http://www.w3.org/2000/svg" fill="#FFFFFF">
 <g>
  <path d="m350 87.5c-106.14 0-192.5 86.363-192.5 192.5s86.363 192.5 192.5 192.5 192.5-86.363 192.5-192.5-86.363-192.5-192.5-192.5zm0 35c86.836 0 157.5 70.648 157.5 157.5 0 31.43-9.3633 60.691-25.289 85.297-33.527-37.277-81.375-59.047-132.21-59.047s-98.684 21.77-132.21 59.047c-15.926-24.605-25.289-53.867-25.289-85.297 0-86.852 70.664-157.5 157.5-157.5zm-109.67 270.3c27.055-32.426 67.023-51.555 109.67-51.555s82.617 19.129 109.67 51.555c-28.383 27.617-67.043 44.695-109.67 44.695s-81.289-17.078-109.67-44.695z"/>
  <path d="m350 297.5c41.824 0 75.828-34.004 75.828-75.828s-34.004-75.844-75.828-75.844-75.828 34.02-75.828 75.844 34.004 75.828 75.828 75.828zm0-116.67c22.523 0 40.828 18.324 40.828 40.844 0 22.504-18.305 40.828-40.828 40.828s-40.828-18.324-40.828-40.828c0-22.523 18.305-40.844 40.828-40.844z"/>
 </g>
</svg>
